<svg width="22" height="17" viewBox="0 0 22 17" fill="none" xmlns="http://www.w3.org/2000/svg">
<path d="M8.02068 12.9152C8.02068 14.3611 6.83501 15.5333 5.37241 15.5333C3.90981 15.5333 2.72413 14.3611 2.72413 12.9152M8.02068 12.9152C8.02068 11.4692 6.83501 10.297 5.37241 10.297C3.90981 10.297 2.72413 11.4692 2.72413 12.9152M8.02068 12.9152H13.9793M2.72413 12.9152H1.39999V2.13335C1.39999 1.58106 1.84771 1.13335 2.39999 1.13335H13.9793V12.9152M19.9379 12.9152C19.9379 14.3611 18.7522 15.5333 17.2896 15.5333C15.827 15.5333 14.6414 14.3611 14.6414 12.9152M19.9379 12.9152C19.9379 11.4692 18.7522 10.297 17.2896 10.297C15.827 10.297 14.6414 11.4692 14.6414 12.9152M19.9379 12.9152H20.6V7.6788L17.2896 4.40607H13.9793V12.9152M14.6414 12.9152H13.9793" stroke="black" stroke-width="2" stroke-linecap="round" stroke-linejoin="round"/>
</svg>
