<svg width="17" height="15" viewBox="0 0 17 15" fill="none" xmlns="http://www.w3.org/2000/svg">
<path d="M8.41111 15C8.14444 15 7.87778 14.9118 7.7 14.6471C2.9 9.26471 1.74444 8.02941 1.47778 7.67647C0.855556 6.88235 0.5 5.82353 0.5 4.76471C0.5 2.11765 2.63333 0 5.38889 0C6.54444 0 7.61111 0.441176 8.5 1.14706C9.38889 0.441176 10.5444 0 11.6111 0C14.2778 0 16.5 2.11765 16.5 4.76471C16.5 5.91177 16.0556 6.97059 15.3444 7.76471L9.12222 14.7353C8.94444 14.9118 8.76667 15 8.41111 15ZM3.07778 6.61765C3.34444 6.97059 6.18889 10.1471 8.5 12.7059L14.0111 6.52941C14.4556 6.08824 14.6333 5.47059 14.6333 4.76471C14.6333 3.17647 13.3 1.85294 11.7 1.85294C10.8111 1.85294 9.92222 2.29412 9.3 3C9.03333 3.26471 8.76667 3.35294 8.5 3.35294C8.23333 3.35294 7.96667 3.17647 7.78889 3C7.16667 2.29412 6.27778 1.85294 5.38889 1.85294C3.78889 1.85294 2.45556 3.17647 2.45556 4.76471C2.36667 5.55882 2.72222 6.17647 3.07778 6.61765C2.98889 6.61765 2.98889 6.61765 3.07778 6.61765Z" fill="black"/>
</svg>
