<svg width="21" height="20" viewBox="0 0 21 20" fill="none" xmlns="http://www.w3.org/2000/svg">
<path d="M9.86709 19.2537L9.84827 19.2252L9.82575 19.1996C6.86851 15.8309 4.96488 13.6802 3.74133 12.2978C3.66129 12.2074 3.58416 12.1203 3.50984 12.0363C2.28725 10.6549 1.8429 10.1498 1.68453 9.9369L1.6846 9.93686L1.67925 9.92993C0.93399 8.96368 0.5 7.66081 0.5 6.35294C0.5 3.10173 3.07408 0.5 6.41667 0.5C7.79935 0.5 9.09161 1.03565 10.1861 1.91857L10.5 2.17183L10.8139 1.91857C11.9042 1.03899 13.3127 0.5 14.5833 0.5C17.8152 0.5 20.5 3.10763 20.5 6.35294C20.5 7.75434 19.9653 9.05 19.1083 10.0223L19.1077 10.0229L10.9518 19.3048C10.8714 19.3843 10.8121 19.4232 10.7505 19.4481C10.6824 19.4755 10.5759 19.5 10.3833 19.5C10.1503 19.5 9.98291 19.4289 9.86709 19.2537Z" fill="#FFE17F" stroke="#B6B4B5"/>
</svg>
